<svg width="30" height="30" viewBox="0 0 30 30" fill="none" xmlns="http://www.w3.org/2000/svg">
<g id="Bus">
<circle id="Ellipse" cx="15" cy="15" r="14.5" stroke="#CBC875"/>
<path id="Bus_2" d="M10.8078 22C10.6318 22 10.476 21.9572 10.3406 21.8717C10.2052 21.7862 10.1375 21.675 10.1375 21.5382V20.1013C9.74479 19.9189 9.45703 19.6566 9.27422 19.3145C9.09141 18.9724 9 18.6075 9 18.2197V11.4289C9 10.5851 9.51797 9.9693 10.5539 9.58158C11.5898 9.19386 13.2453 9 15.5203 9C17.7682 9 19.4102 9.19386 20.4461 9.58158C21.482 9.9693 22 10.5851 22 11.4289V18.2197C22 18.6075 21.9086 18.9724 21.7258 19.3145C21.543 19.6566 21.2552 19.9189 20.8625 20.1013V21.5382C20.8625 21.675 20.7948 21.7862 20.6594 21.8717C20.524 21.9572 20.3682 22 20.1922 22H19.8062C19.6167 22 19.4542 21.9572 19.3188 21.8717C19.1833 21.7862 19.1156 21.675 19.1156 21.5382V20.5974H11.8844V21.5382C11.8844 21.675 11.8167 21.7862 11.6813 21.8717C11.5458 21.9572 11.3833 22 11.1937 22H10.8078ZM15.5203 10.9842C16.8609 10.9842 17.9917 10.9842 18.9125 10.9842C19.8333 10.9842 20.4562 10.9842 20.7812 10.9842H10.2188C10.449 10.9842 10.9906 10.9842 11.8438 10.9842C12.6969 10.9842 13.9224 10.9842 15.5203 10.9842ZM19.1156 15.9961H11.8844C11.4104 15.9961 11.0143 15.9961 10.6961 15.9961C10.3779 15.9961 10.2188 15.9961 10.2188 15.9961H20.7812C20.7812 15.9961 20.6221 15.9961 20.3039 15.9961C19.9857 15.9961 19.5896 15.9961 19.1156 15.9961ZM10.2188 14.9697H20.7812V12.0105H10.2188V14.9697ZM12.3719 18.7158C12.6833 18.7158 12.9474 18.6246 13.1641 18.4421C13.3807 18.2596 13.4891 18.0373 13.4891 17.775C13.4891 17.5127 13.3807 17.2904 13.1641 17.1079C12.9474 16.9254 12.6833 16.8342 12.3719 16.8342C12.0604 16.8342 11.7964 16.9254 11.5797 17.1079C11.363 17.2904 11.2547 17.5127 11.2547 17.775C11.2547 18.0373 11.363 18.2596 11.5797 18.4421C11.7964 18.6246 12.0604 18.7158 12.3719 18.7158ZM18.6281 18.7158C18.9396 18.7158 19.2036 18.6246 19.4203 18.4421C19.637 18.2596 19.7453 18.0373 19.7453 17.775C19.7453 17.5127 19.637 17.2904 19.4203 17.1079C19.2036 16.9254 18.9396 16.8342 18.6281 16.8342C18.3167 16.8342 18.0526 16.9254 17.8359 17.1079C17.6193 17.2904 17.5109 17.5127 17.5109 17.775C17.5109 18.0373 17.6193 18.2596 17.8359 18.4421C18.0526 18.6246 18.3167 18.7158 18.6281 18.7158ZM10.2188 10.9842H20.7812C20.4562 10.6877 19.8333 10.4539 18.9125 10.2829C17.9917 10.1118 16.8609 10.0263 15.5203 10.0263C13.9224 10.0263 12.6969 10.1033 11.8438 10.2572C10.9906 10.4112 10.449 10.6535 10.2188 10.9842ZM11.8844 19.5711H19.1156C19.5896 19.5711 19.9857 19.4171 20.3039 19.1092C20.6221 18.8013 20.7812 18.4478 20.7812 18.0487V15.9961H10.2188V18.0487C10.2188 18.4478 10.3779 18.8013 10.6961 19.1092C11.0143 19.4171 11.4104 19.5711 11.8844 19.5711Z" fill="#CBC875"/>
</g>
</svg>
