<svg width="30" height="30" viewBox="0 0 30 30" fill="none" xmlns="http://www.w3.org/2000/svg">
<g id="Church">
<circle id="Ellipse" cx="15" cy="15" r="14.5" stroke="#333366"/>
<path id="Church_2" d="M9 22V17.2179L11.6812 16.0881V14.0607L15.0125 12.4357V11.1667H13.7125V10.2381H15.0125V9H15.9875V10.2381H17.2875V11.1667H15.9875V12.4357L19.3187 14.0607V16.0881L22 17.2179V22H16.3125V19.5238C16.3125 19.3071 16.234 19.124 16.0769 18.9744C15.9198 18.8248 15.7275 18.75 15.5 18.75C15.2725 18.75 15.0802 18.8248 14.9231 18.9744C14.766 19.124 14.6875 19.3071 14.6875 19.5238V22H9ZM9.975 21.0714H13.7125V19.4929C13.7125 19.0183 13.8858 18.6107 14.2325 18.2702C14.5792 17.9298 15.0017 17.7595 15.5 17.7595C15.9983 17.7595 16.4208 17.9298 16.7675 18.2702C17.1142 18.6107 17.2875 19.0183 17.2875 19.4929V21.0714H21.025V17.7595L18.3437 16.6298V14.5714L15.5 13.1631L12.6562 14.5714V16.6298L9.975 17.7595V21.0714ZM15.5 16.6607C15.7492 16.6607 15.9604 16.5782 16.1337 16.4131C16.3071 16.248 16.3937 16.0468 16.3937 15.8095C16.3937 15.5722 16.3071 15.371 16.1337 15.206C15.9604 15.0409 15.7492 14.9583 15.5 14.9583C15.2508 14.9583 15.0396 15.0409 14.8662 15.206C14.6929 15.371 14.6062 15.5722 14.6062 15.8095C14.6062 16.0468 14.6929 16.248 14.8662 16.4131C15.0396 16.5782 15.2508 16.6607 15.5 16.6607Z" fill="#333366"/>
</g>
</svg>
