<svg width="30" height="30" viewBox="0 0 30 30" fill="none" xmlns="http://www.w3.org/2000/svg">
<g id="Currency">
<path id="Currency_2" d="M17.775 22L10.3542 16.8722V15.6806H13.875C14.9042 15.6806 15.8069 15.4579 16.5833 15.0125C17.3597 14.5671 17.8111 13.9472 17.9375 13.1528H9V12.0694H17.8021C17.5674 11.4917 17.0844 11.0162 16.3531 10.6431C15.6219 10.2699 14.7958 10.0833 13.875 10.0833H9V9H22V10.0833H17.8292C18.2444 10.3241 18.5965 10.631 18.8854 11.0042C19.1743 11.3773 19.3819 11.7324 19.5083 12.0694H22V13.1528H19.5625C19.4181 14.2481 18.8087 15.1238 17.7344 15.7799C16.6601 16.4359 15.3736 16.7639 13.875 16.7639H12.4667L20.0229 22H17.775Z" fill="#D09676"/>
<circle id="Ellipse" cx="15" cy="15" r="14.5" stroke="#D09676"/>
</g>
</svg>
