<svg width="30" height="30" viewBox="0 0 30 30" fill="none" xmlns="http://www.w3.org/2000/svg">
<g id="EV station">
<path id="EV station_2" d="M10.1818 20.9167H15.4803V10.0833H10.1818V20.9167ZM11.9348 20.3028L15.4803 14.7056H13.7076V11.1306L10.1621 16.7278H11.9348V20.3028ZM9 22V10.0833C9 9.79444 9.11818 9.54167 9.35455 9.325C9.59091 9.10833 9.86667 9 10.1818 9H15.4803C15.7955 9 16.0712 9.10833 16.3076 9.325C16.5439 9.54167 16.6621 9.79444 16.6621 10.0833V15.2833H17.9424C18.2182 15.2833 18.4513 15.3706 18.6417 15.5451C18.8321 15.7197 18.9273 15.9333 18.9273 16.1861V20.1403C18.9273 20.4051 19.029 20.6248 19.2326 20.7993C19.4361 20.9738 19.6823 21.0611 19.9712 21.0611C20.2601 21.0611 20.5063 20.9738 20.7098 20.7993C20.9134 20.6248 21.0152 20.4051 21.0152 20.1403V14.8139C20.8707 14.8861 20.7197 14.9403 20.5621 14.9764C20.4045 15.0125 20.247 15.0306 20.0894 15.0306C19.5773 15.0306 19.1407 14.865 18.7795 14.534C18.4184 14.203 18.2379 13.8028 18.2379 13.3333C18.2379 12.9481 18.3561 12.6051 18.5924 12.3042C18.8288 12.0032 19.1439 11.8046 19.5379 11.7083L17.6667 9.99306L18.3758 9.36111L21.3894 12.1236C21.5732 12.2921 21.721 12.4757 21.8326 12.6743C21.9442 12.8729 22 13.0926 22 13.3333V20.1403C22 20.6579 21.803 21.0972 21.4091 21.4583C21.0152 21.8194 20.5359 22 19.9712 22C19.4066 22 18.9273 21.8194 18.5333 21.4583C18.1394 21.0972 17.9424 20.6579 17.9424 20.1403V16.1861H16.6621V22H9ZM15.4803 20.9167H10.1818H15.4803ZM20.0894 14.1278C20.3258 14.1278 20.5293 14.0495 20.7 13.8931C20.8707 13.7366 20.9561 13.55 20.9561 13.3333C20.9561 13.1167 20.8707 12.9301 20.7 12.7736C20.5293 12.6171 20.3258 12.5389 20.0894 12.5389C19.853 12.5389 19.6495 12.6171 19.4788 12.7736C19.3081 12.9301 19.2227 13.1167 19.2227 13.3333C19.2227 13.55 19.3081 13.7366 19.4788 13.8931C19.6495 14.0495 19.853 14.1278 20.0894 14.1278Z" fill="#008000"/>
<circle id="Ellipse" cx="15" cy="15" r="14.5" stroke="#008000"/>
</g>
</svg>
