<svg width="30" height="30" viewBox="0 0 30 30" fill="none" xmlns="http://www.w3.org/2000/svg">
<g id="family">
<circle id="Ellipse" cx="15" cy="15" r="14.5" stroke="#FF69B4"/>
<path id="family_2" d="M19.1463 10.3934C18.8293 10.3934 18.5571 10.276 18.3299 10.041C18.1026 9.80601 17.989 9.52459 17.989 9.19672C17.989 8.86885 18.1026 8.58743 18.3299 8.35246C18.5571 8.11749 18.8293 8 19.1463 8C19.4634 8 19.7356 8.11749 19.9628 8.35246C20.19 8.58743 20.3037 8.86885 20.3037 9.19672C20.3037 9.52459 20.19 9.80601 19.9628 10.041C19.7356 10.276 19.4634 10.3934 19.1463 10.3934ZM18.1951 21V15.4918C18.1951 15.1639 18.1159 14.8689 17.9573 14.6066C17.7988 14.3443 17.5663 14.153 17.2598 14.0328L17.9098 12.0656C17.9943 11.7923 18.1502 11.5738 18.3774 11.4098C18.6047 11.2459 18.861 11.1639 19.1463 11.1639C19.4317 11.1639 19.688 11.2459 19.9152 11.4098C20.1425 11.5738 20.2984 11.7923 20.3829 12.0656L22 16.9016H20.2561V21H18.1951ZM15.5793 14.1148C15.315 14.1148 15.0904 14.0191 14.9055 13.8279C14.7205 13.6366 14.628 13.4044 14.628 13.1311C14.628 12.8579 14.7205 12.6257 14.9055 12.4344C15.0904 12.2432 15.315 12.1475 15.5793 12.1475C15.8435 12.1475 16.0681 12.2432 16.253 12.4344C16.438 12.6257 16.5305 12.8579 16.5305 13.1311C16.5305 13.4044 16.438 13.6366 16.253 13.8279C16.0681 14.0191 15.8435 14.1148 15.5793 14.1148ZM11.2195 10.3934C10.9024 10.3934 10.6303 10.276 10.403 10.041C10.1758 9.80601 10.0622 9.52459 10.0622 9.19672C10.0622 8.86885 10.1758 8.58743 10.403 8.35246C10.6303 8.11749 10.9024 8 11.2195 8C11.5366 8 11.8087 8.11749 12.036 8.35246C12.2632 8.58743 12.3768 8.86885 12.3768 9.19672C12.3768 9.52459 12.2632 9.80601 12.036 10.041C11.8087 10.276 11.5366 10.3934 11.2195 10.3934ZM10.1098 21V16.2459H9V12.1475C9 11.8743 9.09248 11.6421 9.27744 11.4508C9.4624 11.2596 9.68699 11.1639 9.95122 11.1639H12.4878C12.752 11.1639 12.9766 11.2596 13.1616 11.4508C13.3465 11.6421 13.439 11.8743 13.439 12.1475V16.2459H12.3293V21H10.1098ZM14.7073 21V18.2131H13.9146V15.4918C13.9146 15.2951 13.9833 15.1257 14.1207 14.9836C14.2581 14.8415 14.422 14.7705 14.6122 14.7705H16.5463C16.7366 14.7705 16.9004 14.8415 17.0378 14.9836C17.1752 15.1257 17.2439 15.2951 17.2439 15.4918V18.2131H16.4512V21H14.7073Z" fill="#FF69B4"/>
</g>
</svg>
