<svg width="30" height="30" viewBox="0 0 30 30" fill="none" xmlns="http://www.w3.org/2000/svg">
<g id="Food Icon">
<path id="Vector" d="M9.85259 22L9.092 21.2389L16.6979 13.6283C16.4323 13.0485 16.3719 12.4475 16.5168 11.8254C16.6617 11.2032 17.0058 10.6203 17.549 10.0767C18.0923 9.54519 18.7503 9.20393 19.5229 9.05292C20.2956 8.90192 20.9294 9.07406 21.4244 9.56936C21.9315 10.0767 22.1035 10.7109 21.9405 11.472C21.7775 12.2331 21.4123 12.9035 20.8449 13.4834C20.3499 13.9908 19.7976 14.323 19.1879 14.48C18.5782 14.637 18.0078 14.6008 17.4766 14.3713L16.2633 15.5854L21.9134 21.2389L21.1528 22L15.5027 16.3464L9.85259 22ZM12.1162 15.6397L9.96124 13.4834C9.34553 12.8673 9.02559 12.1364 9.00145 11.2908C8.9773 10.4452 9.25498 9.6962 9.83448 9.04386L14.2713 13.4834L12.1162 15.6397Z" fill="#84C879"/>
<circle id="Ellipse" cx="15" cy="15" r="14.5" stroke="#84C879"/>
</g>
</svg>
