<svg width="30" height="30" viewBox="0 0 30 30" fill="none" xmlns="http://www.w3.org/2000/svg">
<g id="Hospital">
<path id="Hospital_2" d="M18.3889 12.7375C18.1481 12.7375 17.9375 12.6562 17.7569 12.4937C17.5764 12.3312 17.4861 12.1417 17.4861 11.925C17.4861 11.7733 17.5674 11.5702 17.7299 11.3156C17.8924 11.061 18.112 10.8037 18.3889 10.5437C18.6657 10.8037 18.8854 11.061 19.0479 11.3156C19.2104 11.5702 19.2917 11.7733 19.2917 11.925C19.2917 12.1417 19.2044 12.3312 19.0299 12.4937C18.8553 12.6562 18.6417 12.7375 18.3889 12.7375ZM20.375 17.2875C19.9296 17.2875 19.5475 17.144 19.2285 16.8569C18.9095 16.5698 18.75 16.2258 18.75 15.825C18.75 15.4892 18.9155 15.0694 19.2465 14.5656C19.5775 14.0619 19.9537 13.5879 20.375 13.1437C20.7843 13.5879 21.1574 14.0619 21.4944 14.5656C21.8315 15.0694 22 15.4892 22 15.825C22 16.2258 21.8435 16.5698 21.5306 16.8569C21.2176 17.144 20.8324 17.2875 20.375 17.2875ZM12.6111 19.2375H13.6944V17.9375H15.1389V16.9625H13.6944V15.6625H12.6111V16.9625H11.1667V17.9375H12.6111V19.2375ZM10.0833 22C9.79444 22 9.54167 21.9025 9.325 21.7075C9.10833 21.5125 9 21.285 9 21.025V15.3375C9 14.4058 9.34306 13.5933 10.0292 12.9C10.7153 12.2067 11.5759 11.7842 12.6111 11.6325V9.975H10.9861V9H15.3194C15.6685 9 15.9995 9.04333 16.3125 9.13C16.6255 9.21667 16.9204 9.34125 17.1972 9.50375L16.4028 10.235C16.2343 10.1483 16.0627 10.0833 15.8882 10.04C15.7137 9.99667 15.5241 9.975 15.3194 9.975H13.6944V11.6325C14.7296 11.7842 15.5903 12.2067 16.2764 12.9C16.9625 13.5933 17.3056 14.4058 17.3056 15.3375V21.025C17.3056 21.285 17.1972 21.5125 16.9806 21.7075C16.7639 21.9025 16.5111 22 16.2222 22H10.0833ZM10.0833 21.025H16.2222V15.3375C16.2222 14.5683 15.9243 13.9156 15.3285 13.3794C14.7326 12.8431 14.0134 12.575 13.1708 12.575C12.3162 12.575 11.588 12.8431 10.9861 13.3794C10.3843 13.9156 10.0833 14.5683 10.0833 15.3375V21.025ZM10.0833 21.025C10.0833 21.025 10.3843 21.025 10.9861 21.025C11.588 21.025 12.3102 21.025 13.1528 21.025C14.0074 21.025 14.7326 21.025 15.3285 21.025C15.9243 21.025 16.2222 21.025 16.2222 21.025H10.0833Z" fill="#001F7D"/>
<circle id="Ellipse" cx="15" cy="15" r="14.5" stroke="#001F7D"/>
</g>
</svg>
