<svg width="30" height="30" viewBox="0 0 30 30" fill="none" xmlns="http://www.w3.org/2000/svg">
<g id="Internet">
<circle id="Ellipse" cx="15" cy="15" r="14.5" stroke="#FF0000"/>
<path id="Internet_2" d="M15.5 22C14.59 22 13.7396 21.8294 12.9487 21.4881C12.1579 21.1469 11.47 20.6838 10.885 20.0988C10.3 19.5138 9.83958 18.8231 9.50375 18.0269C9.16792 17.2306 9 16.3775 9 15.4675C9 14.5575 9.16792 13.7098 9.50375 12.9244C9.83958 12.139 10.3 11.4537 10.885 10.8687C11.47 10.2837 12.1579 9.82604 12.9487 9.49563C13.7396 9.16521 14.59 9 15.5 9C16.41 9 17.2604 9.16521 18.0512 9.49563C18.8421 9.82604 19.53 10.2837 20.115 10.8687C20.7 11.4537 21.1604 12.139 21.4962 12.9244C21.8321 13.7098 22 14.5575 22 15.4675C22 16.3775 21.8321 17.2306 21.4962 18.0269C21.1604 18.8231 20.7 19.5138 20.115 20.0988C19.53 20.6838 18.8421 21.1469 18.0512 21.4881C17.2604 21.8294 16.41 22 15.5 22ZM18.0675 13.0625H20.505C20.1475 12.315 19.6573 11.6921 19.0344 11.1937C18.4115 10.6954 17.6937 10.3433 16.8812 10.1375C17.1521 10.5383 17.3823 10.9717 17.5719 11.4375C17.7615 11.9033 17.9267 12.445 18.0675 13.0625ZM13.94 13.0625H17.0925C16.9733 12.4883 16.7729 11.9331 16.4912 11.3969C16.2096 10.8606 15.8792 10.3867 15.5 9.975C15.1533 10.2675 14.8608 10.6521 14.6225 11.1287C14.3842 11.6054 14.1567 12.25 13.94 13.0625ZM10.17 16.9462H12.7537C12.7212 16.6537 12.7023 16.391 12.6969 16.1581C12.6915 15.9252 12.6887 15.695 12.6887 15.4675C12.6887 15.1967 12.6942 14.9556 12.705 14.7444C12.7158 14.5331 12.7375 14.2975 12.77 14.0375H10.17C10.0942 14.2975 10.0427 14.5304 10.0156 14.7362C9.98854 14.9421 9.975 15.1858 9.975 15.4675C9.975 15.7492 9.98854 16.001 10.0156 16.2231C10.0427 16.4452 10.0942 16.6862 10.17 16.9462ZM14.1187 20.8625C13.8479 20.4508 13.615 20.0067 13.42 19.53C13.225 19.0533 13.0625 18.5171 12.9325 17.9212H10.495C10.9067 18.6904 11.3833 19.2944 11.925 19.7331C12.4667 20.1719 13.1979 20.5483 14.1187 20.8625ZM10.495 13.0625H12.9487C13.0679 12.4775 13.2196 11.9548 13.4037 11.4944C13.5879 11.034 13.8208 10.5871 14.1025 10.1538C13.29 10.3596 12.5804 10.7062 11.9737 11.1937C11.3671 11.6812 10.8742 12.3042 10.495 13.0625ZM15.5 21.0575C15.8792 20.6675 16.196 20.2206 16.4506 19.7169C16.7052 19.2131 16.9137 18.6146 17.0762 17.9212H13.94C14.0917 18.5712 14.2948 19.1562 14.5494 19.6762C14.804 20.1962 15.1208 20.6567 15.5 21.0575ZM13.7612 16.9462H17.255C17.2983 16.6104 17.3254 16.3369 17.3362 16.1256C17.3471 15.9144 17.3525 15.695 17.3525 15.4675C17.3525 15.2508 17.3471 15.0423 17.3362 14.8419C17.3254 14.6415 17.2983 14.3733 17.255 14.0375H13.7612C13.7179 14.3733 13.6908 14.6415 13.68 14.8419C13.6692 15.0423 13.6637 15.2508 13.6637 15.4675C13.6637 15.695 13.6692 15.9144 13.68 16.1256C13.6908 16.3369 13.7179 16.6104 13.7612 16.9462ZM16.8975 20.8462C17.6775 20.5971 18.379 20.2233 19.0019 19.725C19.6248 19.2267 20.1258 18.6254 20.505 17.9212H18.0837C17.9429 18.5062 17.7777 19.0371 17.5881 19.5137C17.3985 19.9904 17.1683 20.4346 16.8975 20.8462ZM18.23 16.9462H20.83C20.9058 16.6862 20.9573 16.4452 20.9844 16.2231C21.0115 16.001 21.025 15.7492 21.025 15.4675C21.025 15.1858 21.0115 14.9421 20.9844 14.7362C20.9573 14.5304 20.9058 14.2975 20.83 14.0375H18.2462C18.2787 14.4167 18.3004 14.7065 18.3113 14.9069C18.3221 15.1073 18.3275 15.2942 18.3275 15.4675C18.3275 15.7058 18.3194 15.9306 18.3031 16.1419C18.2869 16.3531 18.2625 16.6212 18.23 16.9462Z" fill="#FF0000"/>
</g>
</svg>
