<svg width="30" height="30" viewBox="0 0 30 30" fill="none" xmlns="http://www.w3.org/2000/svg">
<g id="Money">
<circle id="Ellipse" cx="15" cy="15" r="14.5" stroke="#85BB65"/>
<path id="Vector" d="M21.6053 13.3254L14.1873 9.04374C14.0866 8.98542 13.9195 8.98542 13.8188 9.04374L9.39665 11.6127C9.2959 11.6711 9.2959 11.7665 9.39665 11.8275L16.8146 16.1091C16.918 16.1674 17.0824 16.1674 17.1831 16.1091L21.6053 13.5401C21.7087 13.4791 21.7087 13.3837 21.6053 13.3254ZM17.7399 15.1202C17.7001 15.0805 17.6498 15.0433 17.5914 15.0115C17.215 14.7941 16.6052 14.7941 16.2287 15.0115C16.1996 15.0274 16.1757 15.046 16.1518 15.0645L11.1544 12.1774C11.2021 12.1589 11.2472 12.1377 11.2923 12.1111C11.6661 11.8937 11.6661 11.5411 11.287 11.3211C11.2445 11.2972 11.2021 11.276 11.1544 11.2575L13.2144 10.0591C13.2462 10.0857 13.2806 10.1122 13.3231 10.136C13.6995 10.3534 14.3093 10.3534 14.6858 10.136C14.7282 10.1122 14.7653 10.0857 14.7971 10.0565L19.8105 12.9516C19.7442 12.9754 19.6806 13.0019 19.6249 13.0364C19.2511 13.2538 19.2511 13.6064 19.6302 13.8265C19.6885 13.8609 19.7521 13.8874 19.8211 13.9113L17.7399 15.1202ZM18.3443 14.0279L18.0182 14.2188C17.9679 14.248 17.8857 14.248 17.8353 14.2188L17.2627 13.8874C17.2123 13.8583 17.2123 13.8105 17.2627 13.7814L17.5888 13.5905C17.6391 13.5613 17.7213 13.5613 17.7717 13.5905L18.3443 13.9219C18.3947 13.9511 18.3947 13.9988 18.3443 14.0279ZM13.4158 11.5597C13.3655 11.5889 13.2833 11.5889 13.2329 11.5597L12.6603 11.231C12.6099 11.2018 12.6099 11.1541 12.6603 11.1249L12.9864 10.934C13.0367 10.9049 13.1189 10.9049 13.1693 10.934L13.7419 11.2654C13.7923 11.2946 13.7923 11.3423 13.7419 11.3715L13.4158 11.5597ZM21.1042 14.643L21.6822 14.9771L17.0479 17.668L16.8968 17.5805L16.47 17.3339L9.31714 13.2008L9.88979 12.8667L17.0426 16.9999L21.1042 14.643ZM16.4779 18.7841L9.31714 14.643L9.88979 14.3116L17.0506 18.4527L21.0963 16.1012L21.6716 16.4325L17.0559 19.1155L16.9074 19.028L16.4779 18.7841ZM21.1042 17.5248L21.6822 17.8589L17.0479 20.5498L16.8968 20.4623L16.47 20.2158L9.31714 16.0852L9.88979 15.7512L17.0426 19.8844L21.1042 17.5248ZM21.0963 18.983L21.6716 19.3144L17.0559 22L16.9074 21.9125L16.4806 21.666L9.31714 17.5248L9.88979 17.1934L17.0506 21.3346L21.0963 18.983ZM16.9657 11.7214C16.1492 11.2495 14.8289 11.2495 14.015 11.7214C13.2037 12.1933 13.209 12.9569 14.0256 13.4288C14.8421 13.9007 16.1624 13.9007 16.9737 13.4288C17.785 12.9595 17.7823 12.1933 16.9657 11.7214ZM16.7165 12.0687L16.5098 12.188C16.6052 12.2729 16.6503 12.3604 16.637 12.4505C16.6264 12.538 16.5654 12.6202 16.4514 12.6944C16.4223 12.713 16.3719 12.713 16.3427 12.6944L16.0617 12.538C16.0352 12.5221 16.0299 12.4956 16.0538 12.4797C16.1094 12.4425 16.1386 12.4054 16.1465 12.371C16.1545 12.3285 16.1333 12.2914 16.0776 12.2596C16.0219 12.2278 15.9663 12.2145 15.9053 12.2198C15.847 12.2251 15.7886 12.2411 15.7383 12.2729C15.6852 12.3047 15.6561 12.3365 15.6534 12.371C15.6481 12.4054 15.6667 12.4558 15.7118 12.5194C15.8152 12.6652 15.8708 12.7872 15.8788 12.88C15.8867 12.9728 15.8205 13.0603 15.6799 13.1398C15.5474 13.2167 15.3989 13.2564 15.2319 13.2538C15.0914 13.2538 14.9535 13.2246 14.8183 13.1716L14.6248 13.2856C14.5983 13.3015 14.5585 13.2989 14.532 13.2856L14.365 13.1875C14.3385 13.1716 14.3385 13.1478 14.365 13.1345L14.5532 13.0258C14.4286 12.933 14.3597 12.8349 14.3517 12.7315C14.3411 12.6334 14.4074 12.5406 14.5452 12.4531C14.5744 12.4346 14.6248 12.4346 14.6539 12.4531L14.935 12.6096C14.9615 12.6255 14.9668 12.652 14.9429 12.6679C14.8793 12.713 14.8475 12.7527 14.8475 12.7925C14.8475 12.8402 14.8793 12.8853 14.9456 12.9224C15.0012 12.9542 15.0596 12.9701 15.1205 12.9675C15.1815 12.9648 15.2398 12.9489 15.2902 12.9198C15.3512 12.8853 15.383 12.8482 15.3857 12.8137C15.391 12.7766 15.3698 12.7289 15.3273 12.6679C15.216 12.5221 15.1577 12.4028 15.1497 12.3126C15.1391 12.2225 15.208 12.135 15.3512 12.0502C15.4811 11.9759 15.6322 11.9388 15.8019 11.9415C15.9583 11.9441 16.1094 11.9759 16.2552 12.0396L16.4567 11.9229C16.4832 11.907 16.5257 11.907 16.5495 11.9229L16.7165 12.021C16.7431 12.0316 16.7431 12.0555 16.7165 12.0687Z" fill="#85BB65"/>
</g>
</svg>
