<svg width="30" height="30" viewBox="0 0 30 30" fill="none" xmlns="http://www.w3.org/2000/svg">
<g id="Network">
<circle id="Ellipse" cx="15" cy="15" r="14.5" stroke="#808080"/>
<path id="Network_2" d="M12.4125 17.0525C11.9792 16.6317 11.6596 16.1227 11.4537 15.5256C11.2479 14.9285 11.145 14.357 11.145 13.811C11.145 13.2651 11.2479 12.6936 11.4537 12.0965C11.6596 11.4993 11.9792 10.9904 12.4125 10.5696L12.9812 11.1667C12.6671 11.4965 12.4179 11.9088 12.2337 12.4035C12.0496 12.8983 11.9575 13.3675 11.9575 13.811C11.9575 14.2091 12.0523 14.6612 12.2419 15.1673C12.4315 15.6734 12.6779 16.1028 12.9812 16.4554L12.4125 17.0525ZM20.0825 18.622L19.5137 18.0249C20.0446 17.4676 20.4563 16.8051 20.7488 16.0374C21.0413 15.2697 21.1875 14.5276 21.1875 13.811C21.1875 13.0945 21.0413 12.3524 20.7488 11.5846C20.4563 10.8169 20.0446 10.1544 19.5137 9.59711L20.0825 9C20.7325 9.65967 21.2146 10.416 21.5287 11.269C21.8429 12.122 22 12.9694 22 13.811C22 14.664 21.851 15.5142 21.5531 16.3615C21.2552 17.2089 20.765 17.9624 20.0825 18.622ZM10.9175 18.622C10.2675 17.9624 9.78542 17.206 9.47125 16.353C9.15708 15.5 9 14.6527 9 13.811C9 12.9694 9.15708 12.122 9.47125 11.269C9.78542 10.416 10.2675 9.65967 10.9175 9L11.4862 9.59711C10.9446 10.1544 10.5302 10.8169 10.2431 11.5846C9.95604 12.3524 9.8125 13.0945 9.8125 13.811C9.8125 14.5276 9.95604 15.2697 10.2431 16.0374C10.5302 16.8051 10.9446 17.4676 11.4862 18.0249L10.9175 18.622ZM18.5875 17.0525L18.0187 16.4554C18.3329 16.1255 18.5821 15.7133 18.7662 15.2185C18.9504 14.7238 19.0425 14.2546 19.0425 13.811C19.0425 13.4129 18.9477 12.9608 18.7581 12.4547C18.5685 11.9486 18.3221 11.5192 18.0187 11.1667L18.5875 10.5696C19.01 10.9904 19.3269 11.4993 19.5381 12.0965C19.7494 12.6936 19.855 13.2651 19.855 13.811C19.855 14.3456 19.7494 14.9143 19.5381 15.5171C19.3269 16.1199 19.01 16.6317 18.5875 17.0525ZM12.4775 22L14.6387 15.0906C14.4546 14.9541 14.3056 14.7778 14.1919 14.5617C14.0781 14.3456 14.0213 14.0954 14.0213 13.811C14.0213 13.3788 14.1648 13.012 14.4519 12.7106C14.739 12.4092 15.0883 12.2585 15.5 12.2585C15.9117 12.2585 16.261 12.4092 16.5481 12.7106C16.8352 13.012 16.9787 13.3788 16.9787 13.811C16.9787 14.0954 16.9219 14.3456 16.8081 14.5617C16.6944 14.7778 16.5454 14.9541 16.3612 15.0906L18.5225 22H17.5637L17.0925 20.4646H13.9237L13.4362 22H12.4775ZM14.2325 19.4409H16.7675L15.5 15.3806L14.2325 19.4409Z" fill="#808080"/>
</g>
</svg>
