<svg width="30" height="30" viewBox="0 0 30 30" fill="none" xmlns="http://www.w3.org/2000/svg">
<g id="pets">
<circle id="Ellipse" cx="15" cy="15" r="14.5" stroke="#EED202"/>
<path id="pets_2" d="M10.4625 14.9868C10.0508 14.9868 9.70417 14.8386 9.4225 14.5421C9.14083 14.2456 9 13.8807 9 13.4474C9 13.014 9.14083 12.6491 9.4225 12.3526C9.70417 12.0561 10.0508 11.9079 10.4625 11.9079C10.8742 11.9079 11.2208 12.0561 11.5025 12.3526C11.7842 12.6491 11.925 13.014 11.925 13.4474C11.925 13.8807 11.7842 14.2456 11.5025 14.5421C11.2208 14.8386 10.8742 14.9868 10.4625 14.9868ZM13.4687 12.0789C13.0571 12.0789 12.7104 11.9307 12.4287 11.6342C12.1471 11.3377 12.0062 10.9728 12.0062 10.5395C12.0062 10.1061 12.1471 9.74123 12.4287 9.44474C12.7104 9.14825 13.0571 9 13.4687 9C13.8804 9 14.2271 9.14825 14.5088 9.44474C14.7904 9.74123 14.9312 10.1061 14.9312 10.5395C14.9312 10.9728 14.7904 11.3377 14.5088 11.6342C14.2271 11.9307 13.8804 12.0789 13.4687 12.0789ZM17.5312 12.0789C17.1196 12.0789 16.7729 11.9307 16.4912 11.6342C16.2096 11.3377 16.0687 10.9728 16.0687 10.5395C16.0687 10.1061 16.2096 9.74123 16.4912 9.44474C16.7729 9.14825 17.1196 9 17.5312 9C17.9429 9 18.2896 9.14825 18.5712 9.44474C18.8529 9.74123 18.9937 10.1061 18.9937 10.5395C18.9937 10.9728 18.8529 11.3377 18.5712 11.6342C18.2896 11.9307 17.9429 12.0789 17.5312 12.0789ZM20.5375 14.9868C20.1258 14.9868 19.7792 14.8386 19.4975 14.5421C19.2158 14.2456 19.075 13.8807 19.075 13.4474C19.075 13.0482 19.2158 12.6919 19.4975 12.3783C19.7792 12.0647 20.1258 11.9079 20.5375 11.9079C20.9492 11.9079 21.2958 12.0561 21.5775 12.3526C21.8592 12.6491 22 13.014 22 13.4474C22 13.8807 21.8592 14.2456 21.5775 14.5421C21.2958 14.8386 20.9492 14.9868 20.5375 14.9868ZM12.0225 22C11.5675 22 11.1938 21.8204 10.9013 21.4612C10.6088 21.102 10.4625 20.6772 10.4625 20.1868C10.4625 19.7079 10.6006 19.2831 10.8769 18.9125C11.1531 18.5419 11.4483 18.1855 11.7625 17.8434C12.0008 17.5925 12.2229 17.3274 12.4287 17.048C12.6346 16.7686 12.8296 16.4807 13.0137 16.1842C13.3279 15.6825 13.68 15.2149 14.07 14.7816C14.46 14.3482 14.9367 14.1316 15.5 14.1316C16.0633 14.1316 16.5427 14.3482 16.9381 14.7816C17.3335 15.2149 17.6883 15.6882 18.0025 16.2013C18.1867 16.4978 18.379 16.7829 18.5794 17.0566C18.7798 17.3303 18.9992 17.5925 19.2375 17.8434C19.5517 18.1855 19.8469 18.5419 20.1231 18.9125C20.3994 19.2831 20.5375 19.7079 20.5375 20.1868C20.5375 20.6772 20.3913 21.102 20.0988 21.4612C19.8063 21.8204 19.4325 22 18.9775 22C18.3925 22 17.8129 21.9487 17.2387 21.8461C16.6646 21.7434 16.085 21.6921 15.5 21.6921C14.915 21.6921 14.3354 21.7434 13.7612 21.8461C13.1871 21.9487 12.6075 22 12.0225 22Z" fill="#EED202"/>
</g>
</svg>
