<svg width="30" height="30" viewBox="0 0 30 30" fill="none" xmlns="http://www.w3.org/2000/svg">
<g id="Phone">
<circle id="Ellipse" cx="15" cy="15" r="14.5" stroke="black"/>
<path id="Phone_2" d="M15.5 20.892C15.7012 20.892 15.8676 20.8502 15.9991 20.7665C16.1307 20.6828 16.1964 20.5769 16.1964 20.4489C16.1964 20.3208 16.1307 20.215 15.9991 20.1312C15.8676 20.0475 15.7012 20.0057 15.5 20.0057C15.2988 20.0057 15.1324 20.0475 15.0009 20.1312C14.8693 20.215 14.8036 20.3208 14.8036 20.4489C14.8036 20.5769 14.8693 20.6828 15.0009 20.7665C15.1324 20.8502 15.2988 20.892 15.5 20.892ZM10.3929 18.8977H20.6071V11.2159H10.3929V18.8977ZM10.3929 22C10.0214 22 9.69643 21.9114 9.41786 21.7341C9.13929 21.5568 9 21.35 9 21.1136V9.88636C9 9.65 9.13929 9.44318 9.41786 9.26591C9.69643 9.08864 10.0214 9 10.3929 9H20.6071C20.9786 9 21.3036 9.08864 21.5821 9.26591C21.8607 9.44318 22 9.65 22 9.88636V21.1136C22 21.35 21.8607 21.5568 21.5821 21.7341C21.3036 21.9114 20.9786 22 20.6071 22H10.3929ZM10.3929 10.3295H20.6071V9.88636H10.3929V10.3295ZM10.3929 9.88636V10.3295V9.88636ZM10.3929 19.7841V21.1136H20.6071V19.7841H10.3929ZM10.3929 21.1136V19.7841V21.1136Z" fill="black"/>
</g>
</svg>
