<svg width="30" height="30" viewBox="0 0 30 30" fill="none" xmlns="http://www.w3.org/2000/svg">
<g id="Plants">
<circle id="Ellipse" cx="15" cy="15" r="14.5" stroke="#618A3D"/>
<path id="Plants_2" d="M15.5 21.7969C14.7688 21.7969 14.0646 21.6682 13.3875 21.4109C12.7104 21.1536 12.0807 20.8016 11.4984 20.3547L10.0359 21.8172C9.91406 21.9391 9.77188 22 9.60938 22C9.44687 22 9.30469 21.9391 9.18281 21.8172C9.06094 21.6953 9 21.5531 9 21.3906C9 21.2281 9.06094 21.0859 9.18281 20.9641L10.6453 19.5016C10.1984 18.9193 9.84635 18.2896 9.58906 17.6125C9.33177 16.9354 9.20312 16.2312 9.20312 15.5C9.20312 13.6854 9.82943 12.1484 11.082 10.8891C12.3346 9.62969 13.8073 9 15.5 9H22V15.5C22 16.299 21.8104 17.0844 21.4312 17.8562C21.0521 18.6281 20.5578 19.3255 19.9484 19.9484C19.3255 20.5578 18.6281 21.0182 17.8562 21.3297C17.0844 21.6411 16.299 21.7969 15.5 21.7969ZM15.5 20.5781C16.1771 20.5781 16.8271 20.4427 17.45 20.1719C18.0729 19.901 18.6214 19.5286 19.0953 19.0547C19.5693 18.5807 19.9687 18.0391 20.2937 17.4297C20.6187 16.8203 20.7812 16.1771 20.7812 15.5V10.2188H15.5C14.8365 10.2188 14.1865 10.3677 13.55 10.6656C12.9135 10.9635 12.3583 11.3495 11.8844 11.8234C11.3969 12.2974 11.0312 12.856 10.7875 13.4992C10.5437 14.1424 10.4219 14.8094 10.4219 15.5C10.4219 16.0552 10.5201 16.5935 10.7164 17.1148C10.9128 17.6362 11.1802 18.1406 11.5187 18.6281L16.2922 13.8547C16.4141 13.7328 16.5562 13.6719 16.7188 13.6719C16.8813 13.6719 17.0234 13.7328 17.1453 13.8547C17.2672 13.9766 17.3281 14.1187 17.3281 14.2812C17.3281 14.4438 17.2672 14.5859 17.1453 14.7078L12.3719 19.5016C12.8458 19.8536 13.3469 20.1211 13.875 20.3039C14.4031 20.4867 14.9448 20.5781 15.5 20.5781Z" fill="#618A3D"/>
</g>
</svg>
