<svg width="30" height="30" viewBox="0 0 30 30" fill="none" xmlns="http://www.w3.org/2000/svg">
<g id="Sailing">
<circle id="Ellipse" cx="15" cy="15" r="14.5" stroke="#D09676"/>
<path id="Sailing_2" d="M8.79625 16.3736L13.6875 9.88838V16.3736H8.79625ZM10.665 15.4852H12.7125V12.7164L10.665 15.4852ZM15.0525 16.3736C15.2583 15.7813 15.4073 15.1866 15.4994 14.5894C15.5915 13.9922 15.6375 13.3531 15.6375 12.672C15.6375 12.0205 15.5915 11.3863 15.4994 10.7694C15.4073 10.1524 15.2583 9.56264 15.0525 9C15.5617 9.18755 16.1087 9.51576 16.6937 9.98462C17.2787 10.4535 17.8258 11.0186 18.335 11.68C18.8442 12.3413 19.2721 13.0742 19.6187 13.8787C19.9654 14.6832 20.155 15.5148 20.1875 16.3736H15.0525ZM16.2712 15.4852H19.115C18.9308 14.6264 18.5923 13.7973 18.0994 12.9977C17.6065 12.1982 17.0675 11.5368 16.4825 11.0137C16.5367 11.3098 16.5719 11.601 16.5881 11.8872C16.6044 12.1735 16.6125 12.4351 16.6125 12.672C16.6125 13.126 16.5773 13.6147 16.5069 14.1378C16.4365 14.661 16.3579 15.1101 16.2712 15.4852ZM12.55 19.6902C12.1817 19.6902 11.8296 19.5989 11.4937 19.4163C11.1579 19.2337 10.86 19.0042 10.6 18.7278C10.4483 18.866 10.2669 19.0017 10.0556 19.135C9.84437 19.2682 9.64125 19.3694 9.44625 19.4385C9.13208 19.2608 8.83958 18.9968 8.56875 18.6464C8.29792 18.2959 8.11917 17.9332 8.0325 17.5581H20.9675C20.8808 17.9332 20.7021 18.2959 20.4312 18.6464C20.1604 18.9968 19.8679 19.2608 19.5537 19.4385C19.3587 19.3694 19.1556 19.2682 18.9444 19.135C18.7331 19.0017 18.5517 18.866 18.4 18.7278C18.14 19.0042 17.8421 19.2337 17.5062 19.4163C17.1704 19.5989 16.8183 19.6902 16.45 19.6902C16.0817 19.6902 15.7296 19.5989 15.3937 19.4163C15.0579 19.2337 14.76 19.0042 14.5 18.7278C14.24 19.0042 13.9421 19.2337 13.6062 19.4163C13.2704 19.5989 12.9183 19.6902 12.55 19.6902ZM8 22V21.1116H8.65C8.99667 21.1116 9.32979 21.0598 9.64937 20.9562C9.96896 20.8525 10.2858 20.6625 10.6 20.3861C10.9142 20.6625 11.2337 20.8525 11.5587 20.9562C11.8837 21.0598 12.2142 21.1116 12.55 21.1116C12.8967 21.1116 13.2298 21.0598 13.5494 20.9562C13.869 20.8525 14.1858 20.6625 14.5 20.3861C14.8142 20.6625 15.1337 20.8525 15.4587 20.9562C15.7837 21.0598 16.1142 21.1116 16.45 21.1116C16.7967 21.1116 17.1298 21.0598 17.4494 20.9562C17.769 20.8525 18.0858 20.6625 18.4 20.3861C18.7142 20.6625 19.031 20.8525 19.3506 20.9562C19.6702 21.0598 20.0033 21.1116 20.35 21.1116H21V22H20.35C20.0358 22 19.7135 21.958 19.3831 21.8741C19.0527 21.7902 18.725 21.6348 18.4 21.4077C18.075 21.6348 17.7473 21.7902 17.4169 21.8741C17.0865 21.958 16.7642 22 16.45 22C16.1358 22 15.8135 21.958 15.4831 21.8741C15.1527 21.7902 14.825 21.6348 14.5 21.4077C14.175 21.6348 13.8473 21.7902 13.5169 21.8741C13.1865 21.958 12.8642 22 12.55 22C12.2358 22 11.9135 21.958 11.5831 21.8741C11.2527 21.7902 10.925 21.6348 10.6 21.4077C10.275 21.6348 9.94729 21.7902 9.61688 21.8741C9.28646 21.958 8.96417 22 8.65 22H8Z" fill="#D09676"/>
</g>
</svg>
