<svg width="30" height="30" viewBox="0 0 30 30" fill="none" xmlns="http://www.w3.org/2000/svg">
<g id="Saving">
<circle id="Ellipse" cx="15" cy="15" r="14.5" stroke="#FFB6DB"/>
<path id="Saving_2" d="M18.1 15.1579C18.2842 15.1579 18.4385 15.0923 18.5631 14.9612C18.6877 14.83 18.75 14.6675 18.75 14.4737C18.75 14.2798 18.6877 14.1173 18.5631 13.9862C18.4385 13.855 18.2842 13.7895 18.1 13.7895C17.9158 13.7895 17.7615 13.855 17.6369 13.9862C17.5123 14.1173 17.45 14.2798 17.45 14.4737C17.45 14.6675 17.5123 14.83 17.6369 14.9612C17.7615 15.0923 17.9158 15.1579 18.1 15.1579ZM12.9 13.4474H16.15V12.4211H12.9V13.4474ZM10.625 22C10.3 20.8711 10.0346 19.9018 9.82875 19.0921C9.62292 18.2825 9.45771 17.5783 9.33313 16.9796C9.20854 16.3809 9.12187 15.8592 9.07312 15.4145C9.02437 14.9697 9 14.5421 9 14.1316C9 13.0825 9.34667 12.193 10.04 11.4632C10.7333 10.7333 11.5783 10.3684 12.575 10.3684H15.825C16.1175 9.95789 16.4885 9.62719 16.9381 9.37632C17.3877 9.12544 17.8833 9 18.425 9C18.6958 9 18.926 9.09978 19.1156 9.29934C19.3052 9.4989 19.4 9.74123 19.4 10.0263C19.4 10.0947 19.3919 10.1632 19.3756 10.2316C19.3594 10.3 19.3404 10.3627 19.3187 10.4197C19.2754 10.5452 19.2348 10.6706 19.1969 10.7961C19.159 10.9215 19.1292 11.0583 19.1075 11.2066L20.5863 12.7632H22V17.5355L20.1637 18.1684L19.075 22H15.5V20.6316H14.2V22H10.625ZM11.3562 20.9737H13.225V19.6053H16.475V20.9737H18.3437L19.3675 17.3816L21.025 16.7829V13.7895H20.18L18.1 11.6C18.1108 11.4061 18.1406 11.1695 18.1894 10.8901C18.2381 10.6107 18.3058 10.3 18.3925 9.95789C17.9267 10.0833 17.515 10.2715 17.1575 10.5224C16.8 10.7732 16.54 11.064 16.3775 11.3947H12.575C11.86 11.3947 11.2479 11.6627 10.7388 12.1987C10.2296 12.7346 9.975 13.3789 9.975 14.1316C9.975 14.6105 10.0942 15.4458 10.3325 16.6375C10.5708 17.8292 10.9121 19.2746 11.3562 20.9737Z" fill="#FFB6DB"/>
</g>
</svg>
