<svg width="30" height="30" viewBox="0 0 30 30" fill="none" xmlns="http://www.w3.org/2000/svg">
<g id="shop">
<circle id="Ellipse" cx="15" cy="15" r="14.5" stroke="#FF5349"/>
<path id="shop_2" d="M21.3224 14.7958V20.9167C21.3224 21.2056 21.2254 21.4583 21.0314 21.675C20.8373 21.8917 20.6109 22 20.3522 22H10.634C10.3753 22 10.1489 21.8917 9.95485 21.675C9.7608 21.4583 9.66378 21.2056 9.66378 20.9167V14.7958C9.36194 14.5069 9.16251 14.1519 9.06549 13.7306C8.96847 13.3093 8.97925 12.888 9.09783 12.4667L9.79314 10.0292C9.87938 9.70417 10.0303 9.45139 10.2459 9.27083C10.4615 9.09028 10.7095 9 10.9897 9H19.9318C20.2336 9 20.4978 9.09329 20.7241 9.27986C20.9505 9.46644 21.1068 9.7162 21.1931 10.0292L21.9046 12.4667C22.0231 12.888 22.0312 13.3093 21.9288 13.7306C21.8264 14.1519 21.6243 14.5069 21.3224 14.7958ZM16.9565 14.2361C17.2691 14.2361 17.5332 14.1218 17.7488 13.8931C17.9644 13.6644 18.0507 13.3875 18.0076 13.0625L17.6033 10.0833H15.9863V13.0625C15.9863 13.3755 16.0779 13.6493 16.2612 13.884C16.4445 14.1187 16.6762 14.2361 16.9565 14.2361ZM13.9327 14.2361C14.2345 14.2361 14.4906 14.1218 14.7008 13.8931C14.911 13.6644 15.0161 13.3875 15.0161 13.0625V10.0833H13.3991L12.9948 13.0625C12.9517 13.3755 13.0272 13.6493 13.2212 13.884C13.4152 14.1187 13.6524 14.2361 13.9327 14.2361ZM10.9897 14.2361C11.2485 14.2361 11.4721 14.1368 11.6608 13.9382C11.8494 13.7396 11.9599 13.4958 11.9923 13.2069L12.4127 10.0833H10.7957L10.0519 12.7194C9.94407 13.0926 9.98719 13.4387 10.1812 13.7576C10.3753 14.0766 10.6448 14.2361 10.9897 14.2361ZM19.9965 14.2361C20.3414 14.2361 20.6136 14.0796 20.8131 13.7667C21.0125 13.4537 21.0583 13.1046 20.9505 12.7194L20.2067 10.0833H18.5897L19.0101 13.2069C19.0424 13.4958 19.1529 13.7396 19.3416 13.9382C19.5302 14.1368 19.7485 14.2361 19.9965 14.2361ZM10.634 20.9167H20.3522V15.3014C20.363 15.3134 20.328 15.3194 20.2471 15.3194C20.1663 15.3194 20.0827 15.3194 19.9965 15.3194C19.727 15.3194 19.471 15.2563 19.2284 15.1299C18.9859 15.0035 18.746 14.8079 18.5088 14.5431C18.3364 14.7838 18.1208 14.9734 17.862 15.1118C17.6033 15.2502 17.3176 15.3194 17.005 15.3194C16.6816 15.3194 16.404 15.2683 16.1723 15.166C15.9405 15.0637 15.7168 14.8921 15.5012 14.6514C15.3395 14.8681 15.1347 15.0336 14.8867 15.1479C14.6388 15.2623 14.3585 15.3194 14.0459 15.3194C13.7117 15.3194 13.4152 15.2532 13.1565 15.1208C12.8978 14.9884 12.6768 14.7958 12.4936 14.5431C12.2348 14.7958 11.9815 14.9884 11.7336 15.1208C11.4856 15.2532 11.2377 15.3194 10.9897 15.3194C10.9143 15.3194 10.8415 15.3194 10.7714 15.3194C10.7014 15.3194 10.6555 15.3134 10.634 15.3014V20.9167ZM20.3522 20.9167H10.634C10.6555 20.9167 10.7014 20.9167 10.7714 20.9167C10.8415 20.9167 10.9143 20.9167 10.9897 20.9167C11.173 20.9167 11.3913 20.9167 11.6446 20.9167C11.898 20.9167 12.1809 20.9167 12.4936 20.9167C12.5906 20.9167 12.6984 20.9167 12.817 20.9167C12.9355 20.9167 13.0622 20.9167 13.197 20.9167C13.3317 20.9167 13.4691 20.9167 13.6093 20.9167C13.7494 20.9167 13.895 20.9167 14.0459 20.9167C14.1645 20.9167 14.2884 20.9167 14.4178 20.9167C14.5472 20.9167 14.6765 20.9167 14.8059 20.9167C14.9352 20.9167 15.0592 20.9167 15.1778 20.9167C15.2964 20.9167 15.4042 20.9167 15.5012 20.9167C15.7384 20.9167 15.9755 20.9167 16.2127 20.9167C16.4498 20.9167 16.714 20.9167 17.005 20.9167C17.1559 20.9167 17.3042 20.9167 17.4497 20.9167C17.5952 20.9167 17.7327 20.9167 17.862 20.9167C17.9914 20.9167 18.11 20.9167 18.2178 20.9167C18.3256 20.9167 18.4226 20.9167 18.5088 20.9167C18.7568 20.9167 19.0047 20.9167 19.2527 20.9167C19.5006 20.9167 19.7485 20.9167 19.9965 20.9167C20.0827 20.9167 20.1663 20.9167 20.2471 20.9167C20.328 20.9167 20.363 20.9167 20.3522 20.9167Z" fill="#FF5349"/>
</g>
</svg>
