<svg width="30" height="30" viewBox="0 0 30 30" fill="none" xmlns="http://www.w3.org/2000/svg">
<g id="Shopping Cart">
<path id="Shopping cart" d="M12.7004 22C12.3758 22 12.0999 21.8862 11.8727 21.6587C11.6454 21.4312 11.5318 21.155 11.5318 20.83C11.5318 20.505 11.6454 20.2287 11.8727 20.0012C12.0999 19.7737 12.3758 19.66 12.7004 19.66C13.025 19.66 13.3009 19.7737 13.5281 20.0012C13.7553 20.2287 13.8689 20.505 13.8689 20.83C13.8689 21.155 13.7553 21.4312 13.5281 21.6587C13.3009 21.8862 13.025 22 12.7004 22ZM19.2572 22C18.9326 22 18.6567 21.8862 18.4295 21.6587C18.2022 21.4312 18.0886 21.155 18.0886 20.83C18.0886 20.505 18.2022 20.2287 18.4295 20.0012C18.6567 19.7737 18.9326 19.66 19.2572 19.66C19.5818 19.66 19.8577 19.7737 20.0849 20.0012C20.3121 20.2287 20.4257 20.505 20.4257 20.83C20.4257 21.155 20.3121 21.4312 20.0849 21.6587C19.8577 21.8862 19.5818 22 19.2572 22ZM15.784 13.9725L15.1024 13.29L16.3034 12.0875H13.3496V11.1125H16.3034L15.1024 9.91L15.784 9.2275L18.1536 11.6L15.784 13.9725ZM9 9.975V9H10.8826L13.6417 14.915H18.3159L20.9126 10.365H22L19.3708 15.2887C19.2626 15.4729 19.1111 15.6327 18.9164 15.7681C18.7216 15.9035 18.5106 15.9712 18.2834 15.9712H13.3658L12.4569 17.6612H20.4257V18.6363H12.603C12.1486 18.6363 11.8213 18.4846 11.6211 18.1812C11.4209 17.8779 11.4236 17.5367 11.6292 17.1575L12.6679 15.24L10.2659 9.975H9Z" fill="#D1C340"/>
<circle id="Ellipse" cx="15" cy="15" r="14.5" stroke="#D1C340"/>
</g>
</svg>
