<svg width="30" height="30" viewBox="0 0 30 30" fill="none" xmlns="http://www.w3.org/2000/svg">
<g id="Tea Coffe">
<circle id="Ellipse" cx="15" cy="15" r="14.5" stroke="#4A2C2A"/>
<path id="Tea Coffe_2" d="M9 22V20.9167H20.5375V22H9ZM11.7264 19.8333C10.9681 19.8333 10.3241 19.5715 9.79444 19.0479C9.26481 18.5243 9 17.8833 9 17.125V9H20.9167C21.2056 9 21.4583 9.10833 21.675 9.325C21.8917 9.54167 22 9.79444 22 10.0833V12.9722C22 13.2611 21.8917 13.5139 21.675 13.7306C21.4583 13.9472 21.2056 14.0556 20.9167 14.0556H19.1833V17.125C19.1833 17.8833 18.9215 18.5243 18.3979 19.0479C17.8743 19.5715 17.2273 19.8333 16.4569 19.8333H11.7264ZM19.1833 12.9722H20.9167V10.0833H19.1833V12.9722ZM11.7264 18.75H16.4569C16.8903 18.75 17.2725 18.5845 17.6035 18.2535C17.9345 17.9225 18.1 17.5463 18.1 17.125V10.0833H13.2792V10.6792L14.5611 11.7264C14.5731 11.7384 14.6273 11.8468 14.7236 12.0514V14.7597C14.7236 14.8801 14.6815 14.9824 14.5972 15.0667C14.513 15.1509 14.4046 15.1931 14.2722 15.1931H11.5458C11.4134 15.1931 11.3051 15.1509 11.2208 15.0667C11.1366 14.9824 11.0944 14.8801 11.0944 14.7597V12.0514C11.0944 11.9912 11.1486 11.8829 11.2569 11.7264L12.5569 10.6792V10.0833H10.0833V17.125C10.0833 17.5463 10.2519 17.9225 10.5889 18.2535C10.9259 18.5845 11.3051 18.75 11.7264 18.75ZM12.5569 10.0833H13.2792H12.5569Z" fill="#4A2C2A"/>
</g>
</svg>
