<svg width="30" height="30" viewBox="0 0 30 30" fill="none" xmlns="http://www.w3.org/2000/svg">
<g id="Travel">
<circle id="Ellipse" cx="15" cy="15" r="14.5" stroke="#FF8A00"/>
<path id="Travel_2" d="M17.8833 22L13.1347 20.3208L9.90278 21.6028C9.69815 21.7111 9.49653 21.7051 9.29792 21.5847C9.09931 21.4644 9 21.2838 9 21.0431V10.9681C9 10.8116 9.04514 10.6731 9.13542 10.5528C9.22569 10.4324 9.34306 10.3421 9.4875 10.2819L13.1347 9L17.8833 10.6611L21.0972 9.37917C21.3019 9.28287 21.5035 9.2919 21.7021 9.40625C21.9007 9.5206 22 9.69815 22 9.93889V20.1403C22 20.2727 21.9549 20.387 21.8646 20.4833C21.7743 20.5796 21.663 20.6519 21.5306 20.7L17.8833 22ZM17.2694 20.6458V11.5278L13.7306 10.3361V19.4542L17.2694 20.6458ZM18.3528 20.6458L20.9167 19.7972V10.5528L18.3528 11.5278V20.6458ZM10.0833 20.4292L12.6472 19.4542V10.3361L10.0833 11.1847V20.4292ZM18.3528 11.5278V20.6458V11.5278ZM12.6472 10.3361V19.4542V10.3361Z" fill="#FF8A00"/>
</g>
</svg>
