<svg width="30" height="30" viewBox="0 0 30 30" fill="none" xmlns="http://www.w3.org/2000/svg">
<g id="Water">
<path id="Water_2" d="M15.5 22C14.0448 22 12.7643 21.5206 11.6586 20.5619C10.5529 19.6031 10 18.3058 10 16.67C10 15.5867 10.4555 14.4085 11.3664 13.1356C12.2773 11.8627 13.6552 10.4842 15.5 9C17.3448 10.4842 18.7227 11.8627 19.6336 13.1356C20.5445 14.4085 21 15.5867 21 16.67C21 18.3058 20.4471 19.6031 19.3414 20.5619C18.2357 21.5206 16.9552 22 15.5 22ZM15.5 21.025C16.7604 21.025 17.8203 20.6133 18.6797 19.79C19.5391 18.9667 19.9688 17.9267 19.9688 16.67C19.9688 15.8142 19.5878 14.8419 18.8258 13.7531C18.0638 12.6644 16.9552 11.5133 15.5 10.3C14.0448 11.5133 12.9362 12.6644 12.1742 13.7531C11.4122 14.8419 11.0312 15.8142 11.0312 16.67C11.0312 17.9267 11.4609 18.9667 12.3203 19.79C13.1797 20.6133 14.2396 21.025 15.5 21.025ZM15.4828 19.92C15.6661 19.92 15.8065 19.8902 15.9039 19.8306C16.0013 19.771 16.05 19.6817 16.05 19.5625C16.05 19.4433 16.0013 19.3513 15.9039 19.2863C15.8065 19.2213 15.6604 19.1887 15.4656 19.1887C14.9844 19.1887 14.4945 19.0452 13.9961 18.7581C13.4977 18.471 13.1797 17.9646 13.0422 17.2387C13.0193 17.1412 12.9677 17.0627 12.8875 17.0031C12.8073 16.9435 12.7214 16.9137 12.6297 16.9137C12.5036 16.9137 12.4063 16.9598 12.3375 17.0519C12.2688 17.144 12.2458 17.2387 12.2688 17.3362C12.4406 18.2462 12.8474 18.9044 13.4891 19.3106C14.1307 19.7169 14.7953 19.92 15.4828 19.92Z" fill="#81AEC8"/>
<circle id="Ellipse" cx="15" cy="15" r="14.5" stroke="#81AEC8"/>
</g>
</svg>
