<svg width="105" height="110" viewBox="0 0 105 110" fill="none" xmlns="http://www.w3.org/2000/svg">
<g id="Logo">
<g id="quill-feather-svgrepo-com 1" opacity="0.8" clip-path="url(#clip0_9_108)">
<path id="Vector" d="M66.3205 65.0036C67.1804 64.7212 67.8624 64.085 68.24 63.2161C69.1062 61.2234 68.1429 58.7773 67.0284 55.9449C66.7696 55.287 66.4172 54.3921 66.1546 53.6027C67.1597 54.1761 68.9667 55.3384 70.6641 56.4577C71.7039 57.142 72.7397 57.8237 73.6848 58.4167C76.7447 60.3366 78.0446 60.8877 79.2423 60.1575C88.7064 54.3706 96.9665 47.4122 100.799 41.9961L102.949 38.9608L99.6538 38.7575C72.444 37.0826 43.4729 45.5798 20.1696 62.0684L17.4948 63.9602L20.1004 65.576C23.7221 67.8213 37.7574 74.4132 66.3205 65.0036Z" fill="#D6C4C4" fill-opacity="0.08"/>
<path id="Vector_2" d="M7.44067 72.324C7.58113 72.5333 7.75397 72.699 7.94638 72.8198C8.54201 73.1935 9.32998 73.1271 9.9345 72.5873C12.416 70.3638 15.0104 68.2767 17.6594 66.265C17.6925 66.297 17.7074 66.3478 17.7412 66.3785C17.7412 66.3785 18.1661 66.7566 19.0665 67.3216C22.8234 69.6787 37.3627 76.6186 66.7015 66.9534C68.0924 66.496 69.2024 65.4512 69.8288 64.012C70.628 62.1748 70.4377 60.2951 69.8724 58.3552C70.8601 59.0052 71.8405 59.649 72.7399 60.2133C75.8322 62.1536 77.8648 63.2378 79.9977 61.9331C82.3134 60.5167 99.5117 49.7371 103.965 40.0496C103.965 40.0496 104.183 39.4437 104.229 39.0793C104.373 37.9653 103.701 36.9891 102.719 36.9001C69.3247 33.9844 33.8592 46.1573 7.84889 69.4577C7.04597 70.1775 6.86483 71.4594 7.44067 72.324ZM99.4356 40.7887C95.8968 45.7883 88.0411 52.5334 78.4811 58.3799C78.0581 58.6385 76.5306 57.8108 74.6314 56.6192C72.7545 55.4416 70.5148 53.9088 68.6185 52.719C66.6838 51.5051 65.1072 50.648 64.6373 50.8884C61.8871 52.2933 69.1839 61.9822 65.9334 63.0525C38.0853 72.2274 24.6348 66.0041 21.0384 63.7746C44.0317 47.5041 72.3042 39.1182 99.4356 40.7887Z" fill="#80FF00" fill-opacity="0.47"/>
</g>
<g id="XpenZe" filter="url(#filter0_d_9_108)">
<path d="M43.9685 62.2521H40.5885C40.3685 62.2521 40.1885 62.1987 40.0485 62.0921C39.9152 61.9854 39.8085 61.8587 39.7285 61.7121L36.8085 56.6121C36.7552 56.7587 36.6952 56.8854 36.6285 56.9921L33.9085 61.7121C33.8152 61.8454 33.7052 61.9687 33.5785 62.0821C33.4519 62.1954 33.2885 62.2521 33.0885 62.2521H29.9285L34.6185 54.7521L30.1085 47.6821H33.4885C33.7085 47.6821 33.8685 47.7121 33.9685 47.7721C34.0752 47.8254 34.1685 47.9187 34.2485 48.0521L37.1485 52.9621C37.1819 52.8754 37.2185 52.7921 37.2585 52.7121C37.3052 52.6321 37.3552 52.5487 37.4085 52.4621L39.9485 48.1021C40.0419 47.9554 40.1385 47.8487 40.2385 47.7821C40.3452 47.7154 40.4752 47.6821 40.6285 47.6821H43.8685L39.2985 54.6121L43.9685 62.2521ZM47.8218 59.4321C48.0552 59.6854 48.3085 59.8654 48.5818 59.9721C48.8552 60.0787 49.1418 60.1321 49.4418 60.1321C49.7285 60.1321 49.9918 60.0754 50.2318 59.9621C50.4718 59.8487 50.6785 59.6687 50.8518 59.4221C51.0318 59.1687 51.1718 58.8421 51.2718 58.4421C51.3718 58.0421 51.4218 57.5554 51.4218 56.9821C51.4218 56.4354 51.3818 55.9754 51.3018 55.6021C51.2218 55.2287 51.1085 54.9287 50.9618 54.7021C50.8218 54.4687 50.6518 54.3021 50.4518 54.2021C50.2518 54.1021 50.0285 54.0521 49.7818 54.0521C49.3285 54.0521 48.9552 54.1354 48.6618 54.3021C48.3685 54.4687 48.0885 54.7121 47.8218 55.0321V59.4321ZM47.6318 53.1621C48.0385 52.7287 48.4985 52.3754 49.0118 52.1021C49.5318 51.8221 50.1485 51.6821 50.8618 51.6821C51.4018 51.6821 51.9018 51.8021 52.3618 52.0421C52.8218 52.2821 53.2185 52.6287 53.5518 53.0821C53.8852 53.5354 54.1452 54.0921 54.3318 54.7521C54.5252 55.4054 54.6218 56.1487 54.6218 56.9821C54.6218 57.7621 54.5118 58.4821 54.2918 59.1421C54.0785 59.8021 53.7752 60.3754 53.3818 60.8621C52.9952 61.3487 52.5285 61.7287 51.9818 62.0021C51.4418 62.2754 50.8418 62.4121 50.1818 62.4121C49.6418 62.4121 49.1885 62.3354 48.8218 62.1821C48.4552 62.0287 48.1218 61.8221 47.8218 61.5621V65.5421H44.7218V51.8821H46.6418C47.0285 51.8821 47.2818 52.0554 47.4018 52.4021L47.6318 53.1621ZM62.6757 55.8221C62.6757 55.5754 62.6424 55.3354 62.5757 55.1021C62.5157 54.8687 62.4124 54.6621 62.2657 54.4821C62.1257 54.2954 61.9391 54.1454 61.7057 54.0321C61.4724 53.9187 61.1891 53.8621 60.8557 53.8621C60.2691 53.8621 59.8091 54.0321 59.4757 54.3721C59.1424 54.7054 58.9224 55.1887 58.8157 55.8221H62.6757ZM58.7757 57.6221C58.8757 58.4887 59.1391 59.1187 59.5657 59.5121C59.9924 59.8987 60.5424 60.0921 61.2157 60.0921C61.5757 60.0921 61.8857 60.0487 62.1457 59.9621C62.4057 59.8754 62.6357 59.7787 62.8357 59.6721C63.0424 59.5654 63.2291 59.4687 63.3957 59.3821C63.5691 59.2954 63.7491 59.2521 63.9357 59.2521C64.1824 59.2521 64.3691 59.3421 64.4957 59.5221L65.3957 60.6321C65.0757 60.9987 64.7291 61.2987 64.3557 61.5321C63.9891 61.7587 63.6091 61.9387 63.2157 62.0721C62.8291 62.1987 62.4391 62.2854 62.0457 62.3321C61.6591 62.3854 61.2891 62.4121 60.9357 62.4121C60.2091 62.4121 59.5257 62.2954 58.8857 62.0621C58.2524 61.8221 57.6957 61.4687 57.2157 61.0021C56.7424 60.5354 56.3657 59.9554 56.0857 59.2621C55.8124 58.5687 55.6757 57.7621 55.6757 56.8421C55.6757 56.1487 55.7924 55.4921 56.0257 54.8721C56.2657 54.2521 56.6057 53.7087 57.0457 53.2421C57.4924 52.7754 58.0291 52.4054 58.6557 52.1321C59.2891 51.8587 60.0024 51.7221 60.7957 51.7221C61.4824 51.7221 62.1091 51.8287 62.6757 52.0421C63.2491 52.2554 63.7391 52.5654 64.1457 52.9721C64.5591 53.3787 64.8791 53.8787 65.1057 54.4721C65.3391 55.0587 65.4557 55.7254 65.4557 56.4721C65.4557 56.7054 65.4457 56.8954 65.4257 57.0421C65.4057 57.1887 65.3691 57.3054 65.3157 57.3921C65.2624 57.4787 65.1891 57.5387 65.0957 57.5721C65.0091 57.6054 64.8957 57.6221 64.7557 57.6221H58.7757ZM69.867 53.0021C70.067 52.8154 70.2737 52.6421 70.487 52.4821C70.7003 52.3221 70.927 52.1887 71.167 52.0821C71.4137 51.9687 71.677 51.8821 71.957 51.8221C72.2437 51.7554 72.5537 51.7221 72.887 51.7221C73.4537 51.7221 73.9537 51.8221 74.387 52.0221C74.827 52.2154 75.197 52.4887 75.497 52.8421C75.797 53.1887 76.0237 53.6054 76.177 54.0921C76.3303 54.5721 76.407 55.0954 76.407 55.6621V62.2521H73.307V55.6621C73.307 55.1554 73.1903 54.7621 72.957 54.4821C72.7237 54.1954 72.3803 54.0521 71.927 54.0521C71.587 54.0521 71.267 54.1254 70.967 54.2721C70.6737 54.4121 70.387 54.6054 70.107 54.8521V62.2521H67.007V51.8821H68.927C69.3137 51.8821 69.567 52.0554 69.687 52.4021L69.867 53.0021ZM96.7187 55.8221C96.7187 55.5754 96.6854 55.3354 96.6187 55.1021C96.5587 54.8687 96.4554 54.6621 96.3087 54.4821C96.1687 54.2954 95.982 54.1454 95.7487 54.0321C95.5154 53.9187 95.232 53.8621 94.8987 53.8621C94.312 53.8621 93.852 54.0321 93.5187 54.3721C93.1854 54.7054 92.9654 55.1887 92.8587 55.8221H96.7187ZM92.8187 57.6221C92.9187 58.4887 93.182 59.1187 93.6087 59.5121C94.0354 59.8987 94.5854 60.0921 95.2587 60.0921C95.6187 60.0921 95.9287 60.0487 96.1887 59.9621C96.4487 59.8754 96.6787 59.7787 96.8787 59.6721C97.0854 59.5654 97.272 59.4687 97.4387 59.3821C97.612 59.2954 97.792 59.2521 97.9787 59.2521C98.2254 59.2521 98.412 59.3421 98.5387 59.5221L99.4387 60.6321C99.1187 60.9987 98.772 61.2987 98.3987 61.5321C98.032 61.7587 97.652 61.9387 97.2587 62.0721C96.872 62.1987 96.482 62.2854 96.0887 62.3321C95.702 62.3854 95.332 62.4121 94.9787 62.4121C94.252 62.4121 93.5687 62.2954 92.9287 62.0621C92.2954 61.8221 91.7387 61.4687 91.2587 61.0021C90.7854 60.5354 90.4087 59.9554 90.1287 59.2621C89.8554 58.5687 89.7187 57.7621 89.7187 56.8421C89.7187 56.1487 89.8354 55.4921 90.0687 54.8721C90.3087 54.2521 90.6487 53.7087 91.0887 53.2421C91.5354 52.7754 92.072 52.4054 92.6987 52.1321C93.332 51.8587 94.0454 51.7221 94.8387 51.7221C95.5254 51.7221 96.152 51.8287 96.7187 52.0421C97.292 52.2554 97.782 52.5654 98.1887 52.9721C98.602 53.3787 98.922 53.8787 99.1487 54.4721C99.382 55.0587 99.4987 55.7254 99.4987 56.4721C99.4987 56.7054 99.4887 56.8954 99.4687 57.0421C99.4487 57.1887 99.412 57.3054 99.3587 57.3921C99.3054 57.4787 99.232 57.5387 99.1387 57.5721C99.052 57.6054 98.9387 57.6221 98.7987 57.6221H92.8187Z" fill="#626262"/>
<path d="M83.3984 47.4376L85.83 47.4083C86.7871 47.4083 87.7408 47.4246 88.6914 47.4572L84.7851 51.6368C86.4192 52.7762 87.5195 53.8797 88.0859 54.9474C88.6523 56.0151 88.929 57.0926 88.916 58.1798C88.9029 59.267 88.6002 60.3836 88.0078 61.5294C87.4218 62.6687 86.6634 63.6648 85.7324 64.5177C84.8014 65.3771 83.75 66.0053 82.5781 66.4025C81.9661 66.6108 81.3639 66.715 80.7714 66.715C80.1855 66.715 79.6093 66.6271 79.0429 66.4513C78.2747 66.2039 77.8906 65.4617 77.8906 64.2247C77.8906 64.1206 77.8938 64.0099 77.9003 63.8927C77.972 62.4604 78.2161 61.282 78.6328 60.3575C79.388 58.6844 80.957 57.1805 83.3398 55.8458C82.7213 55.3706 81.7838 54.8823 80.5273 54.381L84.3554 50.7775C83.5807 50.517 82.6953 50.3868 81.6992 50.3868C80.2539 50.3868 78.9713 50.7091 77.8515 51.3536L79.3554 46.9982C80.638 47.2911 81.9856 47.4376 83.3984 47.4376ZM81.0644 64.1368C81.5266 64.3973 81.9954 64.5275 82.4707 64.5275C82.9524 64.5275 83.4375 64.4005 83.9257 64.1466C84.9153 63.6323 85.5078 63.1505 85.7031 62.7013C85.983 62.213 86.123 61.5913 86.123 60.8361C86.123 59.7163 85.804 58.7332 85.166 57.8868C84.8665 57.8217 84.4987 57.7892 84.0625 57.7892C83.6263 57.7892 83.0501 57.9389 82.3339 58.2384C81.6178 58.5314 81.0546 58.9187 80.6445 59.4005C80.2408 59.8758 79.9283 60.6245 79.707 61.6466C79.6679 61.8159 79.6484 61.9786 79.6484 62.1349C79.6484 62.9357 80.1204 63.603 81.0644 64.1368Z" fill="#D09676"/>
</g>
</g>
<defs>
<filter id="filter0_d_9_108" x="25.9285" y="46.9982" width="77.5702" height="27.7168" filterUnits="userSpaceOnUse" color-interpolation-filters="sRGB">
<feFlood flood-opacity="0" result="BackgroundImageFix"/>
<feColorMatrix in="SourceAlpha" type="matrix" values="0 0 0 0 0 0 0 0 0 0 0 0 0 0 0 0 0 0 127 0" result="hardAlpha"/>
<feOffset dy="4"/>
<feGaussianBlur stdDeviation="2"/>
<feComposite in2="hardAlpha" operator="out"/>
<feColorMatrix type="matrix" values="0 0 0 0 0 0 0 0 0 0 0 0 0 0 0 0 0 0 0.25 0"/>
<feBlend mode="normal" in2="BackgroundImageFix" result="effect1_dropShadow_9_108"/>
<feBlend mode="normal" in="SourceGraphic" in2="effect1_dropShadow_9_108" result="shape"/>
</filter>
<clipPath id="clip0_9_108">
<rect width="71.7455" height="81.202" fill="white" transform="matrix(0.847069 0.531483 -0.465481 0.885058 44.2266 0)"/>
</clipPath>
</defs>
</svg>
